# xmcd
#
# Track frame offsets: 
#        150
#        26185
#        53352
#        68683
#        109605
#        133490
#        158396
#        178736
#        197150
#        211463
#        227718
#        247594
#        263540
#        287421
#
# Disc length: 4070 seconds
#
# Revision: 0
# Processed by: cddbd v1.5.2PL0 Copyright (c) Steve Scherf et al.
# Submitted via: ExactAudioCopy v0.99pb4
#
DISCID=b80fe40e
DTITLE=Brian Templeton - Live At Bluesiana Rock Cafe CD 1
DYEAR=2007
DGENRE=Blues
TTITLE0=Backstroke
TTITLE1=Oh Baby
TTITLE2=Bloozin'
TTITLE3=You've Gone
TTITLE4=The Reign
TTITLE5=Got Love If You Want It
TTITLE6=Stay Gone
TTITLE7=Sugar Girl
TTITLE8=Buzz Buzz Buzz
TTITLE9=Zing Zing
TTITLE10=Disturb Me
TTITLE11=Virginia
TTITLE12=Shame Shame Shame
TTITLE13=She's My Baby
EXTD=
EXTT0=
EXTT1=
EXTT2=
EXTT3=
EXTT4=
EXTT5=
EXTT6=
EXTT7=
EXTT8=
EXTT9=
EXTT10=
EXTT11=
EXTT12=
EXTT13=
PLAYORDER=
